<?xml version="1.0" encoding="utf-8"?>
<!-- Generator: Adobe Illustrator 19.0.1, SVG Export Plug-In . SVG Version: 6.00 Build 0)  -->
<!DOCTYPE svg PUBLIC "-//W3C//DTD SVG 1.1//EN" "http://www.w3.org/Graphics/SVG/1.1/DTD/svg11.dtd">
<svg version="1.1" id="Layer_1" xmlns="http://www.w3.org/2000/svg" xmlns:xlink="http://www.w3.org/1999/xlink" x="0px" y="0px"
	 viewBox="295 62 751.5 129" style="enable-background:new 295 62 751.5 129;" xml:space="preserve">
<style type="text/css">
	.st0{fill:#FFFFFF;}
	.st1{fill:#8FC7E8;}
	.st2{fill:#00A8E1;}
	.st3{fill:#61B4E4;}
</style>
<g>
	<g>
		<path class="st0" d="M407.3,119.5h19.2v12.7h-19.2v26.1h24.2V171h-38.2V81.9h38.2v12.7h-24.2V119.5z"/>
		<path class="st0" d="M469.9,145.2l9.6-63.3H499V171h-13.2v-63.9l-9.7,63.9h-13.2l-10.4-63v63h-12.2V81.9h19.5L469.9,145.2z"/>
		<path class="st0" d="M538.7,145.2l9.5-63.3h19.5V171h-13.2v-63.9l-9.7,63.9h-13.2l-10.4-63v63H509V81.9h19.5L538.7,145.2z"/>
		<path class="st0" d="M623.3,171.1h-14.1l-2.4-16.2h-17.2l-2.4,16.2h-12.9L588.6,82H609L623.3,171.1z M591.3,142.8h13.5l-6.7-45.1
			L591.3,142.8z"/>
		<path class="st0" d="M643.2,81.9v68.8c0,6.4,2.8,8.7,7.3,8.7s7.3-2.3,7.3-8.7V81.9H671v67.9c0,14.3-7.1,22.4-20.9,22.4
			c-13.8,0-20.9-8.1-20.9-22.4V81.9H643.2z"/>
		<path class="st0" d="M699.3,80.9c13.6,0,20.6,8.1,20.6,22.4v2.8h-13.2v-3.7c0-6.4-2.5-8.8-7-8.8s-7,2.4-7,8.8
			c0,18.3,27.4,21.8,27.4,47.2c0,14.3-7.1,22.4-20.9,22.4c-13.8,0-20.9-8.1-20.9-22.4v-5.5h13.2v6.4c0,6.4,2.8,8.7,7.3,8.7
			s7.3-2.3,7.3-8.7c0-18.3-27.4-21.8-27.4-47.2C678.7,89,685.7,80.9,699.3,80.9z"/>
		<path class="st0" d="M788.4,137.8v11.8c0,14.3-7.1,22.4-20.9,22.4s-20.9-8.1-20.9-22.4v-46.3c0-14.3,7.1-22.4,20.9-22.4
			s20.9,8.1,20.9,22.4v8.7h-13.2v-9.5c0-6.4-2.8-8.8-7.3-8.8s-7.3,2.4-7.3,8.8v48.1c0,6.4,2.8,8.7,7.3,8.7s7.3-2.3,7.3-8.7v-12.8
			H788.4z"/>
		<path class="st0" d="M811,171.1h-14V81.9h14v38.2h15.9V81.9h14.3V171h-14.3v-38.1H811V171.1z"/>
		<path class="st0" d="M864.7,81.9v68.8c0,6.4,2.8,8.7,7.3,8.7s7.3-2.3,7.3-8.7V81.9h13.2v67.9c0,14.3-7.1,22.4-20.9,22.4
			c-13.8,0-20.9-8.1-20.9-22.4V81.9H864.7z"/>
		<path class="st0" d="M931.3,171.1c-0.8-2.3-1.3-3.7-1.3-11v-14c0-8.3-2.8-11.3-9.2-11.3H916v36.3h-14V81.9h21.1
			c14.5,0,20.8,6.7,20.8,20.5v7c0,9.2-2.9,15.2-9.2,18.1c7,2.9,9.3,9.7,9.3,19v13.8c0,4.3,0.1,7.5,1.5,10.8
			C945.5,171.1,931.3,171.1,931.3,171.1z M916,94.6V122h5.5c5.2,0,8.4-2.3,8.4-9.4v-8.8c0-6.4-2.2-9.2-7.1-9.2H916z"/>
		<path class="st0" d="M993.8,137.8v11.8c0,14.3-7.1,22.4-20.9,22.4c-13.8,0-20.9-8.1-20.9-22.4v-46.3c0-14.3,7.1-22.4,20.9-22.4
			c13.8,0,20.9,8.1,20.9,22.4v8.7h-13.2v-9.5c0-6.4-2.8-8.8-7.3-8.8s-7.3,2.4-7.3,8.8v48.1c0,6.4,2.8,8.7,7.3,8.7s7.3-2.3,7.3-8.7
			v-12.8H993.8z"/>
		<path class="st0" d="M1016.4,171.1h-14V81.9h14v38.2h15.9V81.9h14.3V171h-14.3v-38.1h-15.9V171.1z"/>
	</g>
</g>
<g>
	<path class="st1" d="M295,101.7V81.8c0-5.4,1.9-10.1,5.7-14c3.9-3.8,8.6-5.8,14.1-5.8h69v19.8c0,5.5-2,10.2-5.9,14.1
		c-3.9,3.8-8.6,5.7-14,5.7L295,101.7L295,101.7z"/>
	<path class="st2" d="M314.8,191c-5.5,0-10.2-1.9-14.1-5.7c-3.8-3.9-5.7-8.6-5.7-14.1v-19.8h69c5.4,0,10.1,2,14,5.9s5.9,8.6,5.9,14
		V191H314.8z"/>
	<path class="st3" d="M348.7,109.6c4.6,0,8.6,1.6,11.9,4.8c3.3,3.3,5,7.4,5,12c0,4.6-1.7,8.6-5,11.9c-3.3,3.3-7.3,5-11.9,5H295
		v-33.7H348.7z"/>
</g>
</svg>
